<?xml version="1.0" standalone="no"?>
<!DOCTYPE svg PUBLIC "-//W3C//DTD SVG 20010904//EN"
 "http://www.w3.org/TR/2001/REC-SVG-20010904/DTD/svg10.dtd">
<svg version="1.0" xmlns="http://www.w3.org/2000/svg"
 width="256.000000pt" height="256.000000pt" viewBox="0 0 256.000000 256.000000"
 preserveAspectRatio="xMidYMid meet">

<g transform="translate(0.000000,256.000000) scale(0.100000,-0.100000)"
fill="#000000" stroke="none">
<path d="M1170 1546 c0 -173 4 -296 9 -296 41 0 41 3 41 252 l0 241 138 -6
c219 -8 286 -46 322 -184 8 -31 9 -25 5 35 -13 184 -93 239 -367 249 l-148 6
0 -297z"/>
<path d="M1959 1802 c5 -10 17 -56 27 -102 19 -95 15 -221 -11 -303 -55 -181
-205 -326 -400 -387 -56 -18 -104 -23 -237 -27 l-168 -6 0 -292 c0 -270 -1
-293 -18 -308 -27 -25 -237 -25 -264 0 -17 15 -18 14 -18 -20 0 -24 8 -46 24
-64 23 -27 28 -28 131 -31 69 -3 117 0 136 8 56 24 59 42 59 345 l0 275 143 0
c111 0 162 5 222 20 195 50 352 187 422 366 34 90 44 272 19 377 -15 62 -59
167 -72 167 -2 0 0 -8 5 -18z"/>
<path d="M1510 710 l0 -55 22 33 21 34 -22 21 -21 21 0 -54z"/>
<path d="M1638 690 c-35 -39 -65 -75 -67 -81 -4 -13 38 -59 53 -58 6 0 37 30
68 67 62 72 74 113 39 132 -11 5 -22 10 -25 10 -2 0 -33 -32 -68 -70z"/>
<path d="M1510 476 c0 -73 -13 -91 -60 -84 -27 4 -30 2 -30 -22 0 -42 26 -70
65 -70 39 0 65 22 65 54 0 40 13 38 55 -9 38 -40 46 -45 86 -45 51 0 69 13 69
50 0 38 -15 48 -68 42 l-48 -4 -62 76 c-35 42 -65 76 -68 76 -2 0 -4 -29 -4
-64z"/>
</g>
</svg>
