<?xml version="1.0" standalone="no"?>
<!DOCTYPE svg PUBLIC "-//W3C//DTD SVG 20010904//EN"
 "http://www.w3.org/TR/2001/REC-SVG-20010904/DTD/svg10.dtd">
<svg version="1.0" xmlns="http://www.w3.org/2000/svg"
 width="96.000000pt" height="96.000000pt" viewBox="0 0 96.000000 96.000000"
 preserveAspectRatio="xMidYMid meet">

<g transform="translate(0.000000,96.000000) scale(0.100000,-0.100000)"
fill="#000000" stroke="none">
<path d="M510 751 c-5 -11 -10 -44 -10 -73 -1 -53 -1 -53 -14 -23 -14 33 -80
95 -99 94 -7 0 -3 -5 9 -11 37 -18 54 -70 54 -169 0 -144 -30 -189 -127 -189
l-53 0 0 -93 c0 -98 -7 -117 -45 -117 -26 0 -45 18 -46 44 -1 16 -2 17 -6 4
-5 -21 31 -94 52 -102 30 -11 55 -6 75 14 16 16 20 33 20 93 0 81 9 97 52 97
44 0 86 26 107 68 l20 37 1 -108 c0 -119 19 -178 64 -198 37 -17 78 7 91 54
l11 38 24 -38 c37 -56 96 -58 125 -3 23 44 19 72 -27 188 l-41 107 36 67 c55
100 50 154 -21 213 -38 32 -69 29 -93 -10 l-15 -26 -30 30 c-16 17 -33 31 -37
31 -5 0 -1 -7 7 -16 11 -11 16 -34 16 -77 l0 -62 31 55 c54 95 82 112 113 68
26 -37 19 -85 -23 -162 l-39 -71 43 -105 c56 -134 57 -182 5 -210 -33 -18 -48
-1 -87 98 l-38 97 -5 -98 c-4 -72 -9 -100 -20 -107 -22 -14 -47 -12 -64 6 -24
23 -24 545 0 568 8 9 11 16 5 16 -6 0 -15 -9 -21 -19z"/>
<path d="M189 743 c-12 -16 -12 -17 1 -6 9 7 54 14 100 16 l85 3 -86 2 c-72 2
-89 -1 -100 -15z"/>
<path d="M172 700 c0 -14 2 -19 5 -12 2 6 2 18 0 25 -3 6 -5 1 -5 -13z"/>
<path d="M270 565 l0 -46 38 3 c36 3 37 4 37 43 0 39 -1 40 -37 43 l-38 3 0
-46z"/>
</g>
</svg>
